<svg xmlns="http://www.w3.org/2000/svg" xmlns:xlink="http://www.w3.org/1999/xlink" version="1.1" width="256" height="256" viewBox="0 0 256 256" xml:space="preserve">
<desc>Created with Fabric.js 1.7.22</desc>
<defs>
</defs>
<g transform="translate(128 128) scale(0.72 0.72)" style="">
	<g style="stroke: none; stroke-width: 0; stroke-dasharray: none; stroke-linecap: butt; stroke-linejoin: miter; stroke-miterlimit: 10; fill: none; fill-rule: nonzero; opacity: 1;" transform="translate(-175.05 -175.05000000000004) scale(3.89 3.89)" >
	<path d="M 54.751 90 H 10.248 c -0.82 0 -1.484 -0.664 -1.484 -1.484 c 0 -0.819 0.664 -1.484 1.484 -1.484 h 44.503 c 8.748 0 17.459 -7.13 19.419 -15.894 l 11.834 -52.926 c 0.932 -4.167 0.17 -8.053 -2.144 -10.941 c -2.223 -2.776 -5.65 -4.305 -9.649 -4.305 H 29.708 c -0.82 0 -1.484 -0.664 -1.484 -1.484 S 28.888 0 29.708 0 h 44.504 c 4.917 0 9.166 1.924 11.965 5.417 c 2.889 3.606 3.856 8.38 2.724 13.444 L 77.065 71.786 C 74.82 81.829 64.81 90 54.751 90 z" style="stroke: none; stroke-width: 1; stroke-dasharray: none; stroke-linecap: butt; stroke-linejoin: miter; stroke-miterlimit: 10; fill: rgb(0,0,0); fill-rule: nonzero; opacity: 1;" transform=" matrix(1 0 0 1 0 0) " stroke-linecap="round" />
	<path d="M 39.823 46.484 H 2.122 c -0.82 0 -1.484 -0.664 -1.484 -1.484 s 0.664 -1.484 1.484 -1.484 h 37.701 c 0.82 0 1.484 0.664 1.484 1.484 S 40.643 46.484 39.823 46.484 z" style="stroke: none; stroke-width: 1; stroke-dasharray: none; stroke-linecap: butt; stroke-linejoin: miter; stroke-miterlimit: 10; fill: rgb(0,0,0); fill-rule: nonzero; opacity: 1;" transform=" matrix(1 0 0 1 0 0) " stroke-linecap="round" />
</g>
</g>
</svg>