<svg xmlns="http://www.w3.org/2000/svg" xmlns:xlink="http://www.w3.org/1999/xlink" version="1.1" width="256" height="256" viewBox="0 0 256 256" xml:space="preserve">
<desc>Created with Fabric.js 1.7.22</desc>
<defs>
</defs>
<g transform="translate(128 128) scale(0.72 0.72)" style="">
	<g style="stroke: none; stroke-width: 0; stroke-dasharray: none; stroke-linecap: butt; stroke-linejoin: miter; stroke-miterlimit: 10; fill: none; fill-rule: nonzero; opacity: 1;" transform="translate(-175.05 -175.05000000000004) scale(3.89 3.89)" >
	<path d="M 82.702 87.033 H 25.665 l 7.98 -42.253 l 30.371 -10.557 c 0.775 -0.269 1.183 -1.115 0.915 -1.889 c -0.269 -0.773 -1.113 -1.185 -1.888 -0.914 L 34.28 41.418 l 7.49 -39.659 c 0.152 -0.805 -0.378 -1.581 -1.183 -1.733 c -0.809 -0.152 -1.581 0.377 -1.733 1.183 l -7.806 41.333 L 6.812 50.966 c -0.774 0.269 -1.183 1.115 -0.914 1.888 c 0.213 0.613 0.787 0.997 1.401 0.997 c 0.161 0 0.326 -0.026 0.487 -0.082 l 22.627 -7.865 l -7.996 42.338 c -0.082 0.434 0.034 0.882 0.316 1.222 c 0.282 0.34 0.7 0.537 1.142 0.537 h 58.826 c 0.819 0 1.484 -0.664 1.484 -1.484 C 84.185 87.697 83.521 87.033 82.702 87.033 z" style="stroke: none; stroke-width: 1; stroke-dasharray: none; stroke-linecap: butt; stroke-linejoin: miter; stroke-miterlimit: 10; fill: rgb(0,0,0); fill-rule: nonzero; opacity: 1;" transform=" matrix(1 0 0 1 0 0) " stroke-linecap="round" />
</g>
</g>
</svg>